<svg width="1024" height="1024" viewBox="0 0 1024 1024" fill="none" xmlns="http://www.w3.org/2000/svg">
<rect width="1024" height="1024" rx="100" fill="#8FFF00"/>
<path d="M250 826H773.335V328.831L642.504 198H250V826ZM276.167 224.166H642.505V328.831H747.17V799.834H276.167V224.166Z" fill="black"/>
<path d="M537.829 459.662H668.66V485.83H537.829V459.662Z" fill="black"/>
<path d="M406.997 474.974L370 437.976L351.501 456.475L406.997 512L517.999 400.978L499.5 382.479L406.997 474.974Z" fill="black"/>
<path d="M537.829 616.66H668.66V642.827H537.829V616.66Z" fill="black"/>
<path d="M406.997 631.971L370 594.97L351.501 613.472L406.997 668.996L517.999 557.974L499.5 539.475L406.997 631.971Z" fill="black"/>
</svg>
